HIERARCHY
ROOT Hips
{
	OFFSET 0.000000 0.000000 0.000000
	CHANNELS 6 Xposition Yposition Zposition Zrotation Yrotation Xrotation 
	JOINT LHipJoint
	{
		OFFSET 0.000000 0.000000 0.000000
		CHANNELS 3 Zrotation Yrotation Xrotation
		JOINT LeftUpLeg
		{
			OFFSET 8.178360 -10.767780 5.035740
			CHANNELS 3 Zrotation Yrotation Xrotation
			JOINT LeftLeg
			{
				OFFSET 14.688660 -40.356780 0.000000
				CHANNELS 3 Zrotation Yrotation Xrotation
				JOINT LeftFoot
				{
					OFFSET 15.373200 -42.237540 0.000000
					CHANNELS 3 Zrotation Yrotation Xrotation
					JOINT LeftToeBase
					{
						OFFSET 0.945840 -2.598660 13.935300
						CHANNELS 3 Zrotation Yrotation Xrotation
						End Site
						{
							OFFSET 0.000000 0.000000 0.000000
						}
					}
				}
			}
		}
	}
	JOINT RHipJoint
	{
		OFFSET 0.000000 0.000000 0.000000
		CHANNELS 3 Zrotation Yrotation Xrotation
		JOINT RightUpLeg
		{
			OFFSET -7.833120 -10.767780 5.035740
			CHANNELS 3 Zrotation Yrotation Xrotation
			JOINT RightLeg
			{
				OFFSET -15.255180 -41.913300 0.000000
				CHANNELS 3 Zrotation Yrotation Xrotation
				JOINT RightFoot
				{
					OFFSET -15.409560 -42.337380 0.000000
					CHANNELS 3 Zrotation Yrotation Xrotation
					JOINT RightToeBase
					{
						OFFSET -0.988380 -2.715540 14.178900
						CHANNELS 3 Zrotation Yrotation Xrotation
						End Site
						{
							OFFSET 0.000000 0.000000 0.000000
						}
					}
				}
			}
		}
	}
	JOINT LowerBack
	{
		OFFSET 0.000000 0.000000 0.000000
		CHANNELS 3 Zrotation Yrotation Xrotation
		JOINT Spine
		{
			OFFSET 0.169620 12.213540 -1.160280
			CHANNELS 3 Zrotation Yrotation Xrotation
			JOINT Spine1
			{
				OFFSET 0.340320 12.293100 -0.256500
				CHANNELS 3 Zrotation Yrotation Xrotation
				JOINT Neck
				{
					OFFSET 0.000000 0.000000 0.000000
					CHANNELS 3 Zrotation Yrotation Xrotation
					JOINT Neck1
					{
						OFFSET -0.325020 10.477440 1.032120
						CHANNELS 3 Zrotation Yrotation Xrotation
						JOINT Head
						{
							OFFSET 0.624420 10.568160 -0.743820
							CHANNELS 3 Zrotation Yrotation Xrotation
							End Site
							{
								OFFSET 0.000000 0.000000 0.000000
							}
						}
					}
				}
				JOINT LeftShoulder
				{
					OFFSET 0.000000 0.000000 0.000000
					CHANNELS 3 Zrotation Yrotation Xrotation
					JOINT LeftArm
					{
						OFFSET 20.174460 7.205340 -1.867260
						CHANNELS 3 Zrotation Yrotation Xrotation
						JOINT LeftForeArm
						{
							OFFSET 29.898000 -0.000000 -0.000000
							CHANNELS 3 Zrotation Yrotation Xrotation
							JOINT LeftHand
							{
								OFFSET 20.901360 -0.000000 -0.000000
								CHANNELS 3 Zrotation Yrotation Xrotation
								JOINT LeftFingerBase
								{
									OFFSET 0.000000 0.000000 0.000000
									CHANNELS 3 Zrotation Yrotation Xrotation
									JOINT LeftHandIndex1
									{
										OFFSET 4.291560 -0.000000 -0.000000
										CHANNELS 3 Zrotation Yrotation Xrotation
										End Site
										{
											OFFSET 0.000000 0.000000 0.000000
										}
									}
								}
								JOINT LThumb
								{
									OFFSET 0.000000 0.000000 0.000000
									CHANNELS 3 Zrotation Yrotation Xrotation
									End Site
									{
										OFFSET 0.000000 0.000000 0.000000
									}
								}
							}
						}
					}
				}
				JOINT RightShoulder
				{
					OFFSET 0.000000 0.000000 0.000000
					CHANNELS 3 Zrotation Yrotation Xrotation
					JOINT RightArm
					{
						OFFSET -18.819600 8.244300 -2.427900
						CHANNELS 3 Zrotation Yrotation Xrotation
						JOINT RightForeArm
						{
							OFFSET -31.451400 -0.000000 -0.000000
							CHANNELS 3 Zrotation Yrotation Xrotation
							JOINT RightHand
							{
								OFFSET -20.665020 -0.000000 -0.000000
								CHANNELS 3 Zrotation Yrotation Xrotation
								JOINT RightFingerBase
								{
									OFFSET 0.000000 0.000000 0.000000
									CHANNELS 3 Zrotation Yrotation Xrotation
									JOINT RightHandIndex1
									{
										OFFSET -3.735180 -0.000000 -0.000000
										CHANNELS 3 Zrotation Yrotation Xrotation
										End Site
										{
											OFFSET 0.000000 0.000000 0.000000
										}
									}
								}
								JOINT RThumb
								{
									OFFSET 0.000000 0.000000 0.000000
									CHANNELS 3 Zrotation Yrotation Xrotation
									End Site
									{
										OFFSET 0.000000 0.000000 0.000000
									}
								}
							}
						}
					}
				}
			}
		}
	}
}
MOTION
Frames:	10
Frame Time:	0.0333333
299.567544 109.728732 -48.779718 13.202845 38.890137 16.945178 -12.584414 -3.216099 7.672417 -4.452401 8.134815 -10.349179 2.470122 12.917774 37.260085 3.719144 1.782217 37.951446 2.871200 -10.483600 -30.557300 12.306619 9.222661 -6.269902 11.476071 -6.587287 -34.958105 -1.036686 -12.906247 28.445612 3.205806 -16.853156 28.381969 -3.005600 -10.704100 31.288400 -7.515873 0.861600 -3.249479 0.224058 1.639537 -5.100365 2.479397 0.838206 -7.145163 -10.923758 -12.390263 -12.460360 12.417311 -14.904529 6.488892 4.066800 -6.509900 9.483100 3.561938 -8.094329 -0.810105 -14.056359 -10.890202 59.307870 124.064062 -55.746551 -96.522407 -3.102940 -0.322990 -4.342525 49.104896 -16.032997 -18.410700 -7.125000 0.000000 0.000000 15.746200 7.137900 -14.229800 -0.973969 9.657994 -1.768963 27.383305 35.627207 32.415954 -50.844236 43.780795 -31.561613 1.486617 6.075440 -58.195524 -36.658419 -17.258341 16.074700 7.125000 0.000000 0.000000 -15.427900 -53.475100 3.276600 
303.327894 107.650782 -44.408706 11.155249 37.230594 12.267933 -9.873993 -3.873488 4.529081 -2.201211 3.989761 -12.197073 6.985270 17.118136 54.671138 5.637477 -13.271856 38.819084 0.876100 -5.967300 -16.689500 11.944692 8.606624 -4.271239 13.754997 -4.311879 -32.736715 -2.250233 -14.278719 34.506182 2.849077 -13.825312 24.000407 -4.164800 -12.376600 37.077400 -5.838064 0.876097 0.586249 0.468640 1.478844 -5.000478 1.908230 0.720998 -7.745274 -11.101406 -12.451684 -12.207997 12.489602 -14.990059 6.157964 4.072700 -6.607700 9.198200 3.543757 -8.043347 -1.017175 -16.938905 -14.772306 57.588169 114.747071 -58.589814 -90.307036 -3.846035 -1.257421 -9.477831 45.998896 -11.162923 -11.256100 -7.125000 0.000000 0.000000 15.747100 15.573700 -11.385500 -0.794432 9.649350 -1.022287 25.245253 31.489265 36.568390 -64.940844 48.566971 -44.796750 1.736309 4.910025 -48.744208 -38.858680 -13.130072 13.548300 7.125000 0.000000 0.000000 -16.081700 -49.111700 1.669900 
306.800652 105.459492 -40.432464 7.396712 34.449255 7.014941 -7.716452 -4.592874 1.452168 1.584331 0.209727 -16.759162 13.471624 19.828058 70.745152 4.872501 -14.142645 28.900243 0.736400 -5.482400 -15.289600 11.689777 8.024151 -2.508248 17.631955 -1.727678 -30.213888 -3.319051 -15.418162 40.020574 2.583761 -11.157644 17.695883 -4.156800 -12.366200 37.040200 -3.179219 1.080900 4.464937 0.892524 1.647001 -4.911617 1.794889 0.770429 -8.635419 -11.153927 -12.183353 -11.579369 12.828084 -14.685526 5.768567 4.213800 -6.513000 8.753000 3.501402 -8.182482 -0.965120 -21.037407 -19.274286 56.219048 100.228293 -59.773482 -80.787072 -4.271839 -2.657953 -13.974525 41.607063 -5.943813 -3.823800 -7.125000 0.000000 0.000000 14.732900 24.688400 -7.470800 -0.489624 9.770452 -0.633841 23.453332 27.393520 39.816899 -79.432844 52.338146 -58.716836 1.867778 3.634541 -37.246102 -40.964987 -6.754168 8.397900 7.125000 0.000000 0.000000 -15.893500 -41.422300 -1.443300 
310.085274 103.805616 -36.333624 5.484737 30.769041 4.683684 -6.373357 -5.813327 -1.170873 4.118483 -2.088985 -23.881752 17.970295 20.962748 79.465147 1.777753 -3.061138 19.666608 0.583500 -4.891100 -13.598200 11.309272 7.780957 -1.301837 20.220999 0.189872 -28.015518 -4.256690 -16.151617 44.180661 1.589762 -8.136424 13.361523 -4.018400 -12.184800 36.388900 -2.465963 1.189296 5.958032 1.182285 1.762560 -4.862928 2.074973 0.904763 -8.592070 -10.790901 -11.823797 -11.671240 13.097582 -14.293687 6.052109 4.216900 -6.280600 8.732000 3.392762 -8.035191 -0.500123 -25.018943 -23.925165 56.270620 85.658834 -57.218255 -70.025562 -3.964419 -4.078526 -20.550616 36.466373 -1.546445 1.183800 -7.125000 0.000000 0.000000 12.089300 31.609500 -4.038600 -0.230644 9.787550 -0.657128 22.767811 22.904447 42.667063 -94.989319 54.915228 -72.283938 1.742871 2.350797 -27.045670 -42.981203 1.006360 0.743100 7.125000 0.000000 0.000000 -15.058200 -30.803800 -5.389100 
313.174824 102.502566 -31.972632 4.939512 26.854641 3.722820 -5.651208 -6.981015 -3.287195 4.740520 -3.067953 -30.800394 18.314504 21.627905 78.509044 -0.294383 2.637237 14.858086 0.228700 -3.078100 -8.496400 11.054841 7.637936 -0.268783 21.507778 1.143870 -25.732963 -5.089293 -16.652135 47.328770 0.550060 -5.589034 10.211852 -3.628500 -11.648900 34.500900 -2.844138 1.199960 6.623778 1.290783 1.731685 -4.786621 2.127636 0.939802 -8.056502 -10.040199 -11.538672 -12.382433 13.326531 -14.029696 6.672654 4.124800 -6.026100 9.024600 3.287652 -7.806948 -0.246658 -28.695169 -28.721626 56.415989 73.783602 -53.173848 -59.043654 -2.905786 -5.210906 -30.219866 30.869073 3.059120 4.517300 -7.125000 0.000000 0.000000 7.999700 37.551500 -1.478000 -0.077288 9.790767 -0.510046 23.091073 19.122532 46.765935 -108.416194 54.466788 -82.581913 1.303865 1.214605 -17.414235 -45.082190 8.218769 -7.302300 7.125000 0.000000 0.000000 -14.186600 -20.060600 -8.728200 
315.945930 102.069240 -27.343320 4.662621 22.395563 3.110199 -5.638468 -7.818266 -4.861480 3.706314 -1.962234 -35.376897 14.650366 21.428721 67.643506 0.057401 2.367871 14.945362 0.608800 -4.994200 -13.892000 11.319398 7.329358 0.842925 21.853025 2.484524 -22.089885 -5.252369 -16.690808 48.212863 -0.321769 -3.761462 8.859850 -3.317300 -11.191900 32.929700 -3.115755 1.359324 7.368799 1.336029 1.900166 -4.719962 1.965207 1.020385 -7.920890 -9.323938 -11.319859 -12.913318 13.252519 -13.867408 7.154153 3.853900 -5.860800 9.207900 3.213108 -7.884699 -0.475741 -32.534059 -33.558136 56.129080 62.660359 -48.798620 -47.126630 -1.429057 -6.113169 -40.775039 25.528802 8.742655 7.199400 -7.125000 0.000000 0.000000 3.174000 44.177000 -0.064500 0.084671 9.982148 -0.116275 23.409097 16.281881 51.949466 -117.125922 52.517717 -88.939099 0.647238 0.583463 -7.587665 -47.029914 14.962611 -14.958500 7.125000 0.000000 0.000000 -13.275800 -9.995700 -11.079500 
318.417882 102.919698 -22.254468 4.749716 18.058083 3.122050 -6.579667 -8.660206 -6.124929 0.870388 1.714985 -37.267889 8.522032 18.804739 49.484332 -1.420540 7.750090 18.330872 1.395600 -7.473500 -21.126100 12.165128 6.938158 2.197082 20.806380 3.596966 -17.554346 -4.442809 -16.054688 46.095286 -1.169311 -2.361863 9.854120 -3.118600 -10.884600 31.891600 -3.285687 1.499460 7.461047 1.379715 2.034790 -4.671980 1.883931 1.109585 -8.031410 -9.417511 -11.082105 -12.933676 12.946436 -13.569247 7.444229 3.653700 -5.751800 9.191000 3.151794 -8.277986 -1.149873 -37.121686 -38.118229 54.945279 52.033997 -44.288323 -35.651047 0.543572 -6.510269 -52.022746 18.819855 13.781929 7.689300 -7.125000 0.000000 0.000000 -4.353400 49.425000 -0.475800 0.259381 10.402335 0.382576 22.906322 13.921490 56.618153 -121.856674 50.989223 -92.441372 0.013329 0.444877 2.076347 -49.455163 22.785699 -23.738100 7.125000 0.000000 0.000000 -12.315000 1.362600 -12.903400 
320.794218 104.504178 -16.586568 4.532804 14.243318 3.758015 -8.221139 -9.605997 -7.284399 -1.941500 6.836765 -37.789403 2.686191 13.735257 30.440550 -3.560703 15.164467 23.259484 1.997300 -8.860500 -25.360000 13.300001 6.615021 3.738782 19.095097 3.886446 -13.399532 -3.003874 -14.894721 42.107812 -2.219718 -0.901481 12.920327 -3.070900 -10.809000 31.638400 -2.869399 1.374198 6.134750 1.433903 1.885322 -4.648102 1.638674 1.044591 -7.712173 -9.515189 -10.823158 -13.278701 12.410941 -13.216129 8.087431 3.382000 -5.600800 9.419500 3.061920 -8.786901 -1.949429 -42.013850 -42.345009 53.041948 41.780945 -38.735789 -25.279389 2.927540 -5.835179 -60.472857 8.872781 17.636523 4.927800 -7.125000 0.000000 0.000000 -17.020300 52.602200 -3.260700 0.390394 10.964791 0.831590 22.241813 12.061212 60.002978 -123.821977 50.321000 -94.031715 -0.343376 0.568882 11.519584 -54.883336 30.630126 -35.083300 7.125000 0.000000 0.000000 -12.661700 14.029900 -15.687500 
323.137404 106.261374 -10.406700 4.057694 10.439715 4.480163 -9.768779 -10.052565 -7.875719 -2.855828 9.684391 -37.106104 -0.624317 9.209347 18.030754 -2.908375 16.683673 27.795324 2.679000 -10.156300 -29.484500 14.163207 6.208896 5.198468 17.317967 3.670421 -9.897741 -1.589098 -13.714241 38.376640 -3.514099 0.977623 18.207881 -2.969000 -10.644700 31.090800 -1.902960 1.144713 4.155686 1.451733 1.627864 -4.629829 0.982229 0.859951 -7.156463 -9.327138 -10.383386 -13.606569 12.030553 -12.694792 8.775124 3.246700 -5.346300 9.645900 2.885129 -9.344722 -2.376059 -46.038207 -45.990335 51.057045 33.387674 -32.232797 -17.331449 4.635793 -4.951803 -65.304344 1.390005 19.055951 1.666300 -7.125000 0.000000 0.000000 -26.601700 53.330300 -5.772200 0.441775 11.489070 1.117056 21.675425 11.051593 63.242627 -124.494326 50.124430 -94.465474 -0.437666 0.714946 17.531852 -62.352094 35.105944 -46.654300 7.125000 0.000000 0.000000 -14.691800 24.242100 -19.895100 
325.309416 108.038616 -4.000146 3.390140 6.206590 4.875298 -10.901890 -9.451096 -7.385846 -0.775396 7.737976 -33.776042 -1.412844 7.544013 13.683475 -2.837400 17.415673 28.887136 2.500900 -9.839600 -28.458800 14.485439 5.640994 6.078763 16.219645 3.391662 -7.376411 -0.957071 -13.270022 36.830528 -3.664084 0.611211 25.603245 -2.717300 -10.222700 29.701000 -0.615188 1.078381 2.528526 1.491735 1.591860 -4.646271 0.309959 0.695992 -6.893708 -9.273915 -9.858452 -13.760988 11.745686 -12.042186 9.463984 3.215700 -5.044900 9.875600 2.646801 -9.990980 -2.260955 -48.784206 -49.341750 49.168136 26.933151 -25.375513 -11.702332 5.600693 -4.825198 -64.623824 -2.666382 19.486867 -0.360800 -7.125000 0.000000 0.000000 -31.895500 53.667100 -7.381400 0.499582 11.919202 1.220688 20.338749 10.560413 67.023204 -125.177085 49.939073 -94.708473 -0.544254 0.904963 17.796163 -66.679773 36.628228 -52.847400 7.125000 0.000000 0.000000 -16.165700 29.059000 -22.545900 
